# xmcd
#
# Track frame offsets:
#	150
#	16657
#	42669
#	62536
#	75134
#	96017
#	107149
#	125676
#	153071
#	174910
#	215532
#	234497
#
# Disc length: 3362 seconds
#
# Revision: 1
# Processed by: cddbd v1.5.1PL0 Copyright (c) Steve Scherf et al.
# Submitted via: audiograbber 1.83.01
#
DISCID=880d200c
DTITLE=Mud Boy And The Neutrons - They Walk Among Us
DYEAR=1900
DGENRE=
TTITLE0=Shake Your Money Maker
TTITLE1=Brownsville
TTITLE2=Littel Queenie
TTITLE3=Memphis Blues Again
TTITLE4=Codine
TTITLE5=Can't Feel At Home
TTITLE6=Bo Diddley
TTITLE7=Money Talks
TTITLE8=I've Got A Secret
TTITLE9=Land Of 1000 Shotguns
TTITLE10=Dark End Of The Street
TTITLE11=Power To The People
EXTD=
EXTT0=
EXTT1=
EXTT2=
EXTT3=
EXTT4=
EXTT5=
EXTT6=
EXTT7=
EXTT8=
EXTT9=
EXTT10=
EXTT11=
PLAYORDER=
